<svg width="60" height="60" viewBox="0 0 60 60" fill="none" xmlns="http://www.w3.org/2000/svg">
<g clip-path="url(#clip0_24_42)">
<path d="M46.652 0H13.348C5.9761 0 0 5.9761 0 13.348V46.652C0 54.0239 5.9761 60 13.348 60H46.652C54.0239 60 60 54.0239 60 46.652V13.348C60 5.9761 54.0239 0 46.652 0Z" fill="url(#paint0_linear_24_42)"/>
<path d="M28.168 52.528C26.378 51.888 25.994 51.018 25.26 45.92C24.406 39.994 24.22 36.326 24.714 35.164C25.37 33.624 27.15 32.75 29.64 32.74C32.11 32.73 33.906 33.612 34.566 35.164C35.062 36.324 34.876 39.994 34.022 45.92C33.442 50.06 33.122 51.106 32.322 51.81C31.222 52.784 29.662 53.054 28.182 52.53L28.168 52.528ZM20.522 46.448C14.342 43.408 10.382 38.264 8.94195 31.42C8.58195 29.654 8.52195 25.44 8.86195 23.82C9.76195 19.47 11.482 16.068 14.342 13.06C18.462 8.71598 23.762 6.41998 29.662 6.41998C35.502 6.41998 40.782 8.67398 44.802 12.888C47.8619 16.068 49.582 19.434 50.462 23.868C50.762 25.344 50.762 29.368 50.482 31.028C49.562 36.276 46.642 41.056 42.382 44.268C40.862 45.416 37.142 47.42 36.542 47.42C36.322 47.42 36.302 47.192 36.402 46.27C36.582 44.79 36.762 44.482 37.602 44.13C38.942 43.57 41.222 41.946 42.622 40.542C45.042 38.142 46.822 35.002 47.642 31.702C48.162 29.642 48.102 25.062 47.522 22.942C45.702 16.202 40.202 10.962 33.462 9.56198C31.502 9.16198 27.942 9.16198 25.962 9.56198C19.142 10.962 13.502 16.462 11.782 23.382C11.322 25.262 11.322 29.842 11.782 31.722C12.922 36.302 15.882 40.502 19.762 43.002C20.522 43.502 21.442 44.022 21.822 44.182C22.662 44.542 22.842 44.842 23.002 46.322C23.102 47.222 23.082 47.482 22.862 47.482C22.722 47.482 21.702 47.042 20.622 46.522L20.522 46.448ZM20.602 38.312C18.522 36.652 16.682 33.708 15.922 30.82C15.462 29.076 15.462 25.76 15.942 24.02C17.202 19.324 20.662 15.684 25.462 13.974C27.102 13.394 30.742 13.264 32.762 13.71C39.722 15.26 44.6619 22.23 43.702 29.144C43.322 31.93 42.3619 34.218 40.662 36.344C39.822 37.418 37.782 39.22 37.422 39.22C37.362 39.22 37.302 38.54 37.302 37.712V36.2L38.342 34.96C42.262 30.264 41.982 23.704 37.702 19.4C36.042 17.724 34.122 16.74 31.642 16.286C30.042 15.99 29.702 15.99 28.022 16.266C25.472 16.682 23.496 17.67 21.742 19.406C17.442 23.666 17.162 30.26 21.082 34.96L22.114 36.2V37.72C22.114 38.56 22.048 39.24 21.966 39.24C21.886 39.24 21.306 38.84 20.686 38.34L20.602 38.312ZM27.542 30.146C25.762 29.318 24.802 27.756 24.782 25.72C24.782 23.89 25.802 22.294 27.562 21.36C28.682 20.772 30.662 20.772 31.782 21.364C33.002 21.998 34.002 23.228 34.382 24.512C35.542 28.456 31.362 31.912 27.582 30.146H27.542Z" fill="white"/>
<path d="M29.9779 30.922C32.7327 30.922 34.9659 28.6888 34.9659 25.934C34.9659 23.1792 32.7327 20.946 29.9779 20.946C27.2231 20.946 24.9899 23.1792 24.9899 25.934C24.9899 28.6888 27.2231 30.922 29.9779 30.922Z" fill="white"/>
<path d="M30.456 32.8541C30.802 32.9001 31.49 32.9901 32.126 33.1941C32.766 33.3941 33.346 33.7081 33.798 34.0301C34.238 34.3501 34.558 34.6821 34.758 35.0861C34.958 35.4901 35.058 35.9701 35.118 36.7561C35.158 37.5441 35.158 38.6361 34.978 40.6761C34.798 42.71 34.438 45.692 34.158 47.602C33.878 49.522 33.678 50.362 33.418 50.982C33.158 51.622 32.818 52.042 32.438 52.342C32.058 52.642 31.618 52.822 31.198 52.922C30.778 53.022 30.398 53.022 30.038 53.022C29.678 53.022 29.338 53.022 28.878 52.922C28.418 52.822 27.818 52.642 27.378 52.282C26.918 51.922 26.618 51.402 26.378 50.722C26.138 50.042 25.958 49.222 25.718 47.582C25.478 45.942 25.158 43.502 24.958 41.6421C24.758 39.7821 24.678 38.5021 24.662 37.6421C24.642 36.7821 24.682 36.3561 24.782 35.9421C24.882 35.5421 25.042 35.1621 25.262 34.8421C25.482 34.5221 25.77 34.2421 26.062 34.0221C26.348 33.8021 26.642 33.6421 26.994 33.5181C27.342 33.3781 27.76 33.2581 28.274 33.1581C28.794 33.0581 29.394 32.9581 29.702 32.9181C30.01 32.8721 30.01 32.8721 30.354 32.9181L30.456 32.8541Z" fill="white"/>
</g>
<defs>
<linearGradient id="paint0_linear_24_42" x1="29.938" y1="60.762" x2="29.43" y2="-2.81253e-06" gradientUnits="userSpaceOnUse">
<stop stop-color="#822CBE"/>
<stop offset="1" stop-color="#D772FB"/>
</linearGradient>
<clipPath id="clip0_24_42">
<rect width="60" height="60" fill="white"/>
</clipPath>
</defs>
</svg>
