<svg width="60" height="60" viewBox="0 0 60 60" fill="none" xmlns="http://www.w3.org/2000/svg">
<g clip-path="url(#clip0_40_242)">
<path d="M60 30C60 13.4316 46.5684 0 30 0C13.4316 0 0 13.4316 0 30C0 44.0688 9.6864 55.8744 22.7532 59.1168V39.168H16.5672V30H22.7532V26.0496C22.7532 15.8388 27.3744 11.106 37.3992 11.106C39.3 11.106 42.5796 11.4792 43.9212 11.8512V20.1612C43.2132 20.0868 41.9832 20.0496 40.4556 20.0496C35.5368 20.0496 33.636 21.9132 33.636 26.7576V30H43.4352L41.7516 39.168H33.636V59.7804C48.4908 57.9864 60.0012 45.3384 60.0012 30H60Z" fill="#0866FF"/>
<path d="M41.7504 39.168L43.434 30H33.6348V26.7576C33.6348 21.9132 35.5356 20.0496 40.4544 20.0496C41.982 20.0496 43.212 20.0868 43.92 20.1612V11.8512C42.5784 11.478 39.2988 11.106 37.398 11.106C27.3732 11.106 22.752 15.8388 22.752 26.0496V30H16.566V39.168H22.752V59.1168C25.0728 59.6928 27.5004 60 29.9988 60C31.2288 60 32.442 59.9244 33.6336 59.7804V39.168H41.7492H41.7504Z" fill="white"/>
</g>
<defs>
<clipPath id="clip0_40_242">
<rect width="60" height="60" fill="white"/>
</clipPath>
</defs>
</svg>
