<svg width="78" height="78" viewBox="0 0 78 78" fill="none" xmlns="http://www.w3.org/2000/svg">
<path d="M68.25 60.125C68.25 64.6133 64.6133 68.25 60.125 68.25H17.875C13.3884 68.25 9.75 64.6133 9.75 60.125V17.875C9.75 13.3867 13.3884 9.75 17.875 9.75H60.125C64.6133 9.75 68.25 13.3867 68.25 17.875V60.125Z" fill="#0288D1"/>
<path d="M19.5 30.875H27.625V58.5H19.5V30.875ZM23.5381 27.625H23.4926C21.0681 27.625 19.5 25.818 19.5 23.5609C19.5 21.255 21.1169 19.5 23.5852 19.5C26.0569 19.5 27.5795 21.255 27.625 23.5609C27.625 25.8164 26.0569 27.625 23.5381 27.625ZM58.5 58.5H50.375V43.7141C50.375 40.1424 48.3844 37.7049 45.188 37.7049C42.7489 37.7049 41.4294 39.3494 40.7891 40.9386C40.5551 41.5074 40.625 43.0804 40.625 43.875V58.5H32.5V30.875H40.625V35.126C41.7966 33.3125 43.6313 30.875 48.3243 30.875C54.1385 30.875 58.4984 34.5312 58.4984 42.6952L58.5 58.5Z" fill="white"/>
</svg>
