<svg width="60" height="60" viewBox="0 0 60 60" fill="none" xmlns="http://www.w3.org/2000/svg">
<g clip-path="url(#clip0_24_43)">
<path d="M29.9986 0.098938C13.4811 0.098938 0.0903931 13.4893 0.0903931 30.0068C0.0903931 46.525 13.4811 59.9143 29.9986 59.9143C46.5179 59.9143 59.9072 46.525 59.9072 30.0068C59.9072 13.4904 46.5179 0.100367 29.9982 0.100367L29.9986 0.098938ZM43.7143 43.2346C43.1786 44.1132 42.0286 44.3918 41.15 43.8525C34.1279 39.5632 25.2879 38.5918 14.8772 40.9704C13.874 41.1989 12.874 40.5704 12.6454 39.5668C12.4158 38.5632 13.0418 37.5632 14.0475 37.3346C25.4404 34.7307 35.2129 35.8525 43.0965 40.6704C43.975 41.2096 44.2536 42.3561 43.7143 43.2346ZM47.375 35.09C46.7 36.1882 45.2643 36.5346 44.1679 35.8596C36.1286 30.9171 23.874 29.4861 14.365 32.3725C13.1318 32.745 11.8293 32.05 11.455 30.8189C11.0836 29.5857 11.779 28.2857 13.01 27.9107C23.8718 24.615 37.375 26.2114 46.6072 31.8846C47.7036 32.5596 48.05 33.9954 47.375 35.0904V35.09ZM47.6893 26.61C38.05 20.8846 22.1465 20.3582 12.9433 23.1514C11.4654 23.5996 9.90254 22.7654 9.45468 21.2875C9.00682 19.8089 9.84039 18.2471 11.3193 17.7979C21.884 14.5907 39.4465 15.2104 50.5443 21.7986C51.8765 22.5875 52.3122 24.3043 51.5229 25.6318C50.7372 26.9611 49.0157 27.3993 47.6907 26.61H47.6893Z" fill="#1ED760"/>
</g>
<defs>
<clipPath id="clip0_24_43">
<rect width="60" height="60" fill="white"/>
</clipPath>
</defs>
</svg>
