<svg width="80" height="80" viewBox="0 0 80 80" fill="none" xmlns="http://www.w3.org/2000/svg">
<path fill-rule="evenodd" clip-rule="evenodd" d="M18.1733 10H61.825C66.34 10 70 13.66 70 18.1733V61.825C70 66.34 66.34 70 61.8267 70H18.1733C13.66 70 10 66.34 10 61.8267V18.1733C10 13.66 13.66 10 18.1733 10Z" fill="#212121"/>
<path fill-rule="evenodd" clip-rule="evenodd" d="M48.68 34.345C51.3066 36.2217 54.525 37.325 58 37.325V30.64C57.3416 30.64 56.6866 30.5717 56.0433 30.435V35.6967C52.5683 35.6967 49.3516 34.5917 46.7233 32.7167V46.3567C46.7233 53.18 41.1883 58.7117 34.3616 58.7117C31.815 58.7117 29.4466 57.9417 27.48 56.6217C29.725 58.915 32.855 60.3383 36.3183 60.3383C43.145 60.3383 48.68 54.8067 48.68 47.9834V34.345ZM51.095 27.6017C49.7533 26.1367 48.8716 24.2417 48.68 22.1467V21.2867H46.825C47.2916 23.9483 48.885 26.2233 51.095 27.6017ZM31.7983 51.3867C31.0483 50.4034 30.6433 49.2017 30.645 47.965C30.645 44.8433 33.1766 42.3133 36.3 42.3133C36.8816 42.3133 37.46 42.4017 38.015 42.5784V35.745C37.3666 35.6567 36.7133 35.6183 36.0583 35.6317V40.95C35.5033 40.7733 34.925 40.685 34.3416 40.685C31.2183 40.685 28.6866 43.215 28.6866 46.3367C28.6883 48.545 29.9533 50.4567 31.7983 51.3867Z" fill="#EC407A"/>
<path fill-rule="evenodd" clip-rule="evenodd" d="M46.7234 32.7167C49.35 34.5933 52.5684 35.6967 56.0434 35.6967V30.435C54.1034 30.0217 52.3867 29.0083 51.095 27.6C48.885 26.2217 47.2934 23.9483 46.8267 21.2867H41.955V47.9833C41.9434 51.095 39.4167 53.615 36.3 53.615C34.4634 53.615 32.8317 52.74 31.7984 51.385C29.9534 50.455 28.6884 48.5433 28.6884 46.3367C28.6884 43.215 31.22 40.685 34.3434 40.685C34.9417 40.685 35.5184 40.7783 36.06 40.95V35.6333C29.3534 35.7717 23.96 41.2483 23.96 47.985C23.96 51.3483 25.3034 54.3967 27.4834 56.6233C29.45 57.9433 31.8184 58.7133 34.365 58.7133C41.1917 58.7133 46.7267 53.1817 46.7267 46.3583L46.7234 32.7167Z" fill="white"/>
<path fill-rule="evenodd" clip-rule="evenodd" d="M56.0433 30.4367V29.0133C54.2933 29.0167 52.58 28.5267 51.095 27.6C52.4083 29.0383 54.1383 30.03 56.0433 30.4367ZM46.825 21.2867C46.78 21.0317 46.7467 20.7767 46.7233 20.5183V19.6583H39.9967V46.3567C39.9867 49.4683 37.4583 51.9883 34.3417 51.9883C33.4267 51.9883 32.5633 51.7717 31.7983 51.385C32.8317 52.74 34.4633 53.615 36.3 53.615C39.4167 53.615 41.9433 51.095 41.955 47.9833V21.2867H46.825ZM36.0583 35.6333V34.1183C35.4967 34.0417 34.93 34.0033 34.3617 34.0033C27.5333 34.0033 22 39.535 22 46.3583C22 50.6367 24.175 54.4067 27.48 56.6233C25.3 54.3967 23.9567 51.3483 23.9567 47.985C23.9567 41.2483 29.3517 35.7717 36.0583 35.6333Z" fill="#81D4FA"/>
</svg>
