<svg width="60" height="60" viewBox="0 0 60 60" fill="none" xmlns="http://www.w3.org/2000/svg">
<path d="M58.6519 15.5419C57.9631 12.9645 55.9335 10.9349 53.3561 10.2461C48.684 8.99408 29.9517 8.99408 29.9517 8.99408C29.9517 8.99408 11.2194 8.99408 6.54734 10.2461C3.97042 10.9349 1.94034 12.9645 1.25148 15.5419C0 20.2135 0 29.9606 0 29.9606C0 29.9606 0 39.7076 1.25148 44.3787C1.94034 46.9561 3.97042 48.9862 6.54734 49.6751C11.2194 50.9266 29.9517 50.9266 29.9517 50.9266C29.9517 50.9266 48.684 50.9266 53.3561 49.6751C55.9335 48.9862 57.9631 46.9561 58.6519 44.3787C59.9039 39.7076 59.9039 29.9606 59.9039 29.9606C59.9039 29.9606 59.9039 20.2135 58.6519 15.5419Z" fill="#ED1F24"/>
<path d="M23.9612 38.9461L39.5243 29.9604L23.9612 20.9747V38.9461Z" fill="white"/>
</svg>
